<svg width="50" height="50" viewBox="0 0 50 50" fill="none" xmlns="http://www.w3.org/2000/svg">
<g clip-path="url(#clip0_212_511)">
<path d="M6.11399 6C5.94892 5.99985 5.78603 6.03768 5.63792 6.11055C5.4898 6.18342 5.36044 6.28939 5.25982 6.42025C4.65849 7.18558 5.20003 7.95433 5.87824 8.57616C6.23015 8.89903 8.90198 11.6409 11.7344 14.6014C12.6255 13.3497 13.6668 12.212 14.835 11.2138C11.2646 8.99811 7.89406 6.86441 7.49602 6.58083C7.05186 6.26308 6.56669 6.00342 6.11399 6ZM14.835 11.2138C17.992 13.175 21.3027 15.1976 22.8522 16.0655C25.3617 17.468 29.2721 20.6506 29.8426 23.6402C30.7566 24.4363 33.5702 26.9133 34.2775 27.7624C35.4699 27.4019 36.8707 27.9896 37.7966 29.6757C39.276 32.38 38.1844 36.0768 34.4346 38.1968C34.2722 38.3555 34.1035 38.5077 33.929 38.6529L34.4346 38.1968C36.3821 35.689 33.2149 34.0285 32.4273 31.5959C32.2812 31.1675 32.2174 30.7154 32.2394 30.2634C31.3289 29.7816 28.6349 27.7829 27.4646 26.9065C24.388 27.1798 20.2777 23.8776 18.3251 21.6449C17.1293 20.2748 14.3618 17.345 11.7344 14.6014C9.46503 17.7914 8.24358 21.608 8.23915 25.5228C8.23915 29.2569 9.34646 32.9073 11.4211 36.0122C13.4957 39.117 16.4444 41.537 19.8943 42.966C23.3443 44.395 27.1405 44.7689 30.803 44.0404C34.4654 43.3119 37.8296 41.5137 40.47 38.8732C43.1105 36.2328 44.9087 32.8686 45.6372 29.2061C46.3657 25.5437 45.9918 21.7475 44.5628 18.2975C43.1338 14.8476 40.7138 11.8989 37.609 9.82426C34.5041 7.74965 30.8538 6.64233 27.1196 6.64233C22.6096 6.64916 18.2516 8.27207 14.835 11.2138ZM29.7145 24.1151C28.8347 24.3303 28.0609 25.5347 27.8046 26.3462C27.7397 26.5426 27.7363 26.8638 27.9174 26.9304C29.2874 27.9417 30.5755 28.9257 32.0173 29.8346C32.2941 29.1632 33.2917 28.1895 33.8897 27.7846L29.7145 24.1151ZM10.0175 26.915C11.4047 30.1574 19.9224 39.1637 30.6199 31.519C30.6136 31.9343 30.6795 32.3476 30.8147 32.7404C31.6005 35.1663 34.8463 36.8865 32.9296 39.3858C29.2823 41.716 24.388 41.4375 20.9901 40.2878C14.9119 38.231 10.8888 32.8873 10.0175 26.915ZM33.5617 28.1109L33.4506 28.1946C33.4438 28.2014 33.4375 28.206 33.4318 28.2082C33.4375 28.2014 33.4449 28.1969 33.4506 28.1946C33.4916 28.169 33.5241 28.1365 33.5617 28.1126V28.1109Z" fill="#0D6786"/>
</g>
<defs>
<clipPath id="clip0_212_511">
<rect width="50" height="50" fill="white"/>
</clipPath>
</defs>
</svg>
