<svg width="50" height="50" viewBox="0 0 50 50" fill="none" xmlns="http://www.w3.org/2000/svg">
<g clip-path="url(#clip0_212_523)">
<path d="M16.2498 4.16675H33.7498C40.4165 4.16675 45.8332 9.58342 45.8332 16.2501V33.7501C45.8332 36.9548 44.5601 40.0282 42.294 42.2943C40.028 44.5604 36.9545 45.8334 33.7498 45.8334H16.2498C9.58317 45.8334 4.1665 40.4168 4.1665 33.7501V16.2501C4.1665 13.0454 5.43957 9.97194 7.70563 7.70587C9.9717 5.43981 13.0451 4.16675 16.2498 4.16675ZM15.8332 8.33342C13.844 8.33342 11.9364 9.12359 10.5299 10.5301C9.12335 11.9366 8.33317 13.8443 8.33317 15.8334V34.1667C8.33317 38.3126 11.6873 41.6668 15.8332 41.6668H34.1665C36.1556 41.6668 38.0633 40.8766 39.4698 39.4701C40.8763 38.0635 41.6665 36.1559 41.6665 34.1667V15.8334C41.6665 11.6876 38.3123 8.33342 34.1665 8.33342H15.8332ZM35.9373 11.4584C36.628 11.4584 37.2904 11.7328 37.7788 12.2212C38.2671 12.7095 38.5415 13.3719 38.5415 14.0626C38.5415 14.7533 38.2671 15.4156 37.7788 15.904C37.2904 16.3924 36.628 16.6667 35.9373 16.6667C35.2467 16.6667 34.5843 16.3924 34.0959 15.904C33.6075 15.4156 33.3332 14.7533 33.3332 14.0626C33.3332 13.3719 33.6075 12.7095 34.0959 12.2212C34.5843 11.7328 35.2467 11.4584 35.9373 11.4584ZM24.9998 14.5834C27.7625 14.5834 30.412 15.6809 32.3655 17.6344C34.319 19.5879 35.4165 22.2374 35.4165 25.0001C35.4165 27.7628 34.319 30.4123 32.3655 32.3658C30.412 34.3193 27.7625 35.4167 24.9998 35.4167C22.2372 35.4167 19.5876 34.3193 17.6341 32.3658C15.6806 30.4123 14.5832 27.7628 14.5832 25.0001C14.5832 22.2374 15.6806 19.5879 17.6341 17.6344C19.5876 15.6809 22.2372 14.5834 24.9998 14.5834ZM24.9998 18.7501C23.3422 18.7501 21.7525 19.4086 20.5804 20.5807C19.4083 21.7528 18.7498 23.3425 18.7498 25.0001C18.7498 26.6577 19.4083 28.2474 20.5804 29.4195C21.7525 30.5916 23.3422 31.2501 24.9998 31.2501C26.6574 31.2501 28.2472 30.5916 29.4193 29.4195C30.5914 28.2474 31.2498 26.6577 31.2498 25.0001C31.2498 23.3425 30.5914 21.7528 29.4193 20.5807C28.2472 19.4086 26.6574 18.7501 24.9998 18.7501Z" fill="#0D6786"/>
</g>
<defs>
<clipPath id="clip0_212_523">
<rect width="50" height="50" fill="white"/>
</clipPath>
</defs>
</svg>
