<svg width="50" height="50" viewBox="0 0 50 50" fill="none" xmlns="http://www.w3.org/2000/svg">
<g clip-path="url(#clip0_212_515)">
<path d="M15.5064 11.1458C16.8377 11.1458 18.0689 11.2499 19.1939 11.5583C20.321 11.7645 21.2439 12.177 22.0627 12.6916C22.8835 13.2062 23.4981 13.9291 23.9064 14.8562C24.3168 15.7833 24.5231 16.9187 24.5231 18.1541C24.5231 19.5978 24.2147 20.8333 23.4981 21.7603C22.8835 22.6895 21.8585 23.5124 20.6293 24.1312C22.371 24.6478 23.7022 25.5749 24.5231 26.8103C25.3418 28.0478 25.8543 29.5937 25.8543 31.3458C25.8543 32.7895 25.546 34.0249 25.0335 35.0562C24.5231 36.0874 23.7022 37.0145 22.7793 37.6333C21.7768 38.2965 20.6686 38.784 19.5022 39.0749C18.2731 39.3853 17.0439 39.5916 15.8147 39.5916H2.0835V11.1458H15.5064ZM14.6856 22.6874C15.8127 22.6874 16.7356 22.3791 17.4522 21.8645C18.1689 21.3499 18.4772 20.4208 18.4772 19.2874C18.4772 18.6687 18.3731 18.0499 18.1689 17.6395C17.9647 17.227 17.6564 16.9166 17.2481 16.6083C16.8304 16.3742 16.3814 16.2009 15.9147 16.0937C15.4022 15.9895 14.8918 15.9895 14.2752 15.9895H8.3335V22.6895L14.6856 22.6874ZM14.9939 34.8499C15.6085 34.8499 16.2231 34.7458 16.7356 34.6437C17.2481 34.5395 17.7606 34.3353 18.1689 34.0249C18.5864 33.7233 18.9356 33.3372 19.1939 32.8916C19.3981 32.377 19.6043 31.7583 19.6043 31.0374C19.6043 29.5937 19.1939 28.5624 18.3752 27.8416C17.5543 27.2228 16.4272 26.9145 15.096 26.9145H8.3335V34.852L14.9939 34.8499ZM34.7689 34.7458C35.5877 35.5708 36.8168 35.9833 38.4564 35.9833C39.5835 35.9833 40.6085 35.6749 41.4272 35.1603C42.2481 34.5416 42.7606 33.9228 42.9647 33.3041H47.9856C47.1647 35.777 45.9356 37.5291 44.2981 38.6624C42.6564 39.6937 40.7106 40.3124 38.3543 40.3124C36.8468 40.3171 35.3518 40.0372 33.9481 39.4874C32.6849 39.0137 31.5584 38.2351 30.6689 37.2208C29.7174 36.272 29.0141 35.1036 28.621 33.8187C28.1085 32.4791 27.9022 31.0374 27.9022 29.3874C27.9022 27.8416 28.1085 26.3999 28.621 25.0583C29.1144 23.7666 29.8442 22.5783 30.7731 21.5541C31.6939 20.627 32.821 19.8041 34.0502 19.2874C35.4183 18.7375 36.8798 18.4574 38.3543 18.4624C40.096 18.4624 41.6335 18.7728 42.9647 19.4937C44.2981 20.2145 45.321 21.0395 46.1397 22.277C46.9606 23.4103 47.5772 24.7499 47.9856 26.1937C48.1897 27.6353 48.2918 29.0791 48.1897 30.727H33.3335C33.3335 32.377 33.9481 33.9228 34.7689 34.7478M41.2231 23.927C40.5064 23.2062 39.3793 22.7937 38.046 22.7937C37.2642 22.7819 36.4911 22.9584 35.7918 23.3083C35.1772 23.6187 34.7689 24.0312 34.3585 24.4437C33.9813 24.8421 33.7318 25.3441 33.6418 25.8853C33.5377 26.402 33.4356 26.8124 33.4356 27.2249H42.6564C42.4522 25.6791 41.9397 24.6499 41.2231 23.927ZM32.2064 13.1041H43.6814V15.8874H32.2085L32.2064 13.1041Z" fill="#0D6786"/>
</g>
<defs>
<clipPath id="clip0_212_515">
<rect width="50" height="50" fill="white"/>
</clipPath>
</defs>
</svg>
