<svg width="50" height="50" viewBox="0 0 50 50" fill="none" xmlns="http://www.w3.org/2000/svg">
<g clip-path="url(#clip0_212_503)">
<path d="M39.2708 21.6458L41.4792 19.4375C43.1042 17.8125 43.1042 15.1667 41.4792 13.5417L38.5417 10.6042C36.9167 8.97917 34.2708 8.97917 32.6458 10.6042L30.4375 12.8125L39.2708 21.6458ZM27.4792 15.75L8.33333 34.9167V43.75H17.1667L36.3125 24.6042L27.4792 15.75ZM39.5833 36.4583C39.5833 41.0208 34.2917 43.75 29.1667 43.75C28.0208 43.75 27.0833 42.8125 27.0833 41.6667C27.0833 40.5208 28.0208 39.5833 29.1667 39.5833C32.375 39.5833 35.4167 38.0625 35.4167 36.4583C35.4167 35.4792 34.4167 34.6458 32.8542 33.9583L35.9375 30.875C38.1667 32.1875 39.5833 33.9375 39.5833 36.4583ZM9.54167 27.8125C7.52083 26.6458 6.25 25.125 6.25 22.9167C6.25 19.1667 10.1875 17.4375 13.6667 15.9167C15.8125 14.9583 18.75 13.6667 18.75 12.5C18.75 11.6458 17.125 10.4167 14.5833 10.4167C11.9583 10.4167 10.8333 11.6875 10.7708 11.75C10.0417 12.6042 8.72917 12.7083 7.85417 12C7.43639 11.6569 7.1697 11.1637 7.11129 10.6263C7.05287 10.0888 7.20737 9.54987 7.54167 9.125C7.77083 8.83333 9.91667 6.25 14.5833 6.25C19.25 6.25 22.9167 9 22.9167 12.5C22.9167 16.3958 18.8958 18.1667 15.3333 19.7292C13.375 20.5833 10.4167 21.875 10.4167 22.9167C10.4167 23.5625 11.3125 24.1667 12.6458 24.7083L9.54167 27.8125Z" fill="#0D6786"/>
</g>
<defs>
<clipPath id="clip0_212_503">
<rect width="50" height="50" fill="white"/>
</clipPath>
</defs>
</svg>
