<svg width="50" height="50" viewBox="0 0 50 50" fill="none" xmlns="http://www.w3.org/2000/svg">
<g clip-path="url(#clip0_212_507)">
<path d="M14.7106 45.8334C17.8835 45.8334 20.6272 44.7022 22.8564 42.473C25.196 40.1334 26.4127 36.5272 26.0877 33.1105L43.9293 15.2688C45.1473 14.0483 45.831 12.3943 45.8302 10.6701C45.8294 8.94581 45.1442 7.29238 43.9252 6.073C41.471 3.61466 37.1877 3.61466 34.7335 6.073L16.2252 24.5813C12.2397 24.9334 8.2939 27.7501 8.2939 32.7459C8.2939 33.3772 8.33765 33.9709 8.3814 34.5376C8.54807 36.6855 8.60849 37.4917 5.31682 39.1376C4.99351 39.2998 4.71794 39.5433 4.51718 39.8442C4.31643 40.145 4.19739 40.493 4.17175 40.8538C4.14611 41.2146 4.21476 41.5759 4.37096 41.9021C4.52715 42.2284 4.76552 42.5084 5.06265 42.7147C5.25015 42.8397 9.6314 45.8334 14.7106 45.8334C14.7085 45.8334 14.7085 45.8334 14.7106 45.8334ZM37.6793 9.01675C38.1239 8.5903 38.7162 8.35254 39.3322 8.35332C39.9482 8.35409 40.54 8.59335 40.9835 9.02091C41.2002 9.23759 41.3721 9.49482 41.4894 9.77793C41.6066 10.061 41.667 10.3645 41.667 10.6709C41.667 10.9774 41.6066 11.2808 41.4894 11.5639C41.3721 11.847 41.2002 12.1042 40.9835 12.3209L25.0002 28.3042L21.696 25.0001L37.6793 9.01675ZM12.5377 34.2147C12.5002 33.748 12.4606 33.2605 12.4606 32.7438C12.4606 29.5251 15.471 28.6751 17.0647 28.6751C17.8064 28.6751 18.521 28.8272 19.0731 29.1042C21.0418 30.0938 21.6981 31.798 21.9002 33.0542C22.2689 35.3251 21.4481 37.9876 19.9085 39.5272C18.4689 40.9667 16.7689 41.6667 14.7106 41.6667C13.1481 41.6667 11.6272 41.2584 10.3877 40.7772C12.6418 38.7501 12.7231 36.6334 12.5377 34.2147Z" fill="#0D6786"/>
</g>
<defs>
<clipPath id="clip0_212_507">
<rect width="50" height="50" fill="white"/>
</clipPath>
</defs>
</svg>
