<svg width="50" height="50" viewBox="0 0 50 50" fill="none" xmlns="http://www.w3.org/2000/svg">
<g clip-path="url(#clip0_212_559)">
<path d="M45.67 13.2704V37.4199C45.67 38.9894 44.3991 40.2604 42.8295 40.2604H36.1988V24.1619L24.835 32.6868L13.4712 24.1619V40.2621H6.84051C6.46734 40.2621 6.09783 40.1886 5.75309 40.0457C5.40835 39.9029 5.09514 39.6935 4.83135 39.4295C4.56756 39.1656 4.35837 38.8522 4.21572 38.5074C4.07308 38.1626 3.99977 37.793 4 37.4199V13.2704C4 9.75793 8.009 7.75256 10.8183 9.86037L13.4712 11.8518L24.835 20.3734L36.1988 11.8484L38.8517 9.86037C41.6593 7.75429 45.67 9.75793 45.67 13.2704Z" fill="#0D6786"/>
</g>
<defs>
<clipPath id="clip0_212_559">
<rect width="50" height="50" fill="white"/>
</clipPath>
</defs>
</svg>
