<svg width="50" height="50" viewBox="0 0 50 50" fill="none" xmlns="http://www.w3.org/2000/svg">
<path fill-rule="evenodd" clip-rule="evenodd" d="M26.0148 29.4997L34.7707 38.2456C35.2353 38.7097 35.8655 38.9704 36.5225 38.9704C37.1796 38.9704 37.8097 38.7097 38.2744 38.2456C38.739 37.7815 39 37.1521 39 36.4957C39 35.8394 38.739 35.21 38.2744 34.7459L29.5152 26L38.2727 17.2541C38.5027 17.0243 38.685 16.7515 38.8094 16.4513C38.9338 16.1511 38.9978 15.8294 38.9978 15.5045C38.9977 15.1796 38.9335 14.8579 38.809 14.5578C38.6845 14.2576 38.5019 13.9849 38.2719 13.7552C38.0418 13.5256 37.7687 13.3434 37.4682 13.2191C37.1677 13.0949 36.8456 13.0309 36.5203 13.031C36.195 13.0311 35.873 13.0952 35.5725 13.2196C35.272 13.344 34.999 13.5263 34.769 13.7561L26.0148 22.502L17.2589 13.7561C17.0306 13.5197 16.7574 13.3311 16.4553 13.2013C16.1532 13.0715 15.8282 13.0031 15.4994 13.0001C15.1705 12.9971 14.8444 13.0595 14.5399 13.1838C14.2355 13.308 13.9589 13.4916 13.7262 13.7238C13.4936 13.9559 13.3095 14.232 13.1849 14.536C13.0602 14.84 12.9974 15.1657 13.0001 15.4942C13.0028 15.8227 13.071 16.1473 13.2006 16.4492C13.3303 16.7511 13.5188 17.0241 13.7552 17.2524L22.5144 26L13.7569 34.7476C13.5205 34.9759 13.3319 35.2489 13.2023 35.5508C13.0726 35.8527 13.0044 36.1773 13.0017 36.5058C12.999 36.8343 13.0619 37.16 13.1865 37.464C13.3112 37.768 13.4952 38.0441 13.7279 38.2762C13.9605 38.5084 14.2371 38.692 14.5416 38.8162C14.846 38.9405 15.1722 39.0029 15.501 38.9999C15.8299 38.9969 16.1548 38.9285 16.4569 38.7987C16.759 38.6689 17.0322 38.4803 17.2606 38.2439L26.0148 29.4997Z" fill="white"/>
</svg>
