<svg width="50" height="50" viewBox="0 0 50 50" fill="none" xmlns="http://www.w3.org/2000/svg">
<g clip-path="url(#clip0_212_484)">
<path d="M31.2498 4.16675C25.604 4.16675 20.729 7.37508 18.2915 12.0417C15.6168 13.4352 13.435 15.6171 12.0415 18.2917C9.66897 19.5245 7.68015 21.3846 6.2916 23.6695C4.90305 25.9543 4.16801 28.5764 4.1665 31.2501C4.1665 39.3126 10.6873 45.8334 18.7498 45.8334C24.3957 45.8334 29.2707 42.6251 31.7082 37.9584C34.3829 36.5649 36.5647 34.3831 37.9582 31.7084C40.3307 30.4756 42.3195 28.6155 43.7081 26.3307C45.0966 24.0458 45.8317 21.4238 45.8332 18.7501C45.8332 10.6876 39.3123 4.16675 31.2498 4.16675ZM18.7498 41.6667C16.816 41.6652 14.9207 41.1256 13.2761 40.1082C11.6314 39.0909 10.3023 37.636 9.43749 35.9063C8.57264 34.1766 8.20616 32.2403 8.37907 30.3142C8.55197 28.3881 9.25743 26.5481 10.4165 25.0001C10.4165 33.0626 16.9373 39.5834 24.9998 39.5834C23.2498 40.8959 21.0832 41.6667 18.7498 41.6667ZM24.9998 35.4167C23.066 35.4152 21.1707 34.8756 19.5261 33.8582C17.8814 32.8409 16.5523 31.386 15.6875 29.6563C14.8226 27.9266 14.4562 25.9903 14.6291 24.0642C14.802 22.1381 15.5074 20.2981 16.6665 18.7501C16.6665 26.7917 23.1873 33.3126 31.2498 33.3334C29.4998 34.6459 27.3332 35.4167 24.9998 35.4167ZM34.7915 28.5417C33.6873 28.9376 32.4998 29.1667 31.2498 29.1667C25.4998 29.1667 20.8332 24.5001 20.8332 18.7501C20.8332 17.5001 21.0623 16.3126 21.4582 15.2084C22.5623 14.8126 23.7498 14.5834 24.9998 14.5834C30.7498 14.5834 35.4165 19.2501 35.4165 25.0001C35.4165 26.2501 35.1873 27.4376 34.7915 28.5417ZM39.5832 25.0001C39.5832 16.9584 33.0623 10.4376 24.9998 10.4167C27.0068 8.92022 29.4854 8.1962 31.9823 8.37713C34.4793 8.55806 36.8276 9.63184 38.5978 11.4021C40.3681 13.1723 41.4419 15.5207 41.6228 18.0176C41.8037 20.5145 41.0797 22.9931 39.5832 25.0001Z" fill="#0D6786"/>
</g>
<defs>
<clipPath id="clip0_212_484">
<rect width="50" height="50" fill="white"/>
</clipPath>
</defs>
</svg>
