<svg width="50" height="50" viewBox="0 0 50 50" fill="none" xmlns="http://www.w3.org/2000/svg">
<g clip-path="url(#clip0_212_499)">
<path d="M39.1934 5H11.8066C8.04744 5 5 8.12558 5 11.9812V39.0188C5 42.8744 8.04744 46 11.8066 46H39.1934C42.9526 46 46 42.8744 46 39.0188V11.9812C46 8.12558 42.9526 5 39.1934 5Z" fill="#0D6786"/>
<path d="M21.5374 30.4674H15.1175L13.7989 34.7198C13.7822 34.7929 13.743 34.8582 13.6874 34.9056C13.6319 34.9531 13.563 34.98 13.4915 34.9824H10.2139C10.0284 34.9824 9.96354 34.8754 10.0194 34.6614L15.6009 17.9424L15.6749 17.7126C15.7058 17.6153 15.7367 17.5118 15.7676 17.3875C15.8404 16.9983 15.8777 16.6026 15.8788 16.206C15.875 16.1783 15.8775 16.15 15.8859 16.1234C15.8944 16.0968 15.9086 16.0727 15.9275 16.0529C15.9463 16.0331 15.9693 16.0182 15.9946 16.0093C16.02 16.0004 16.0469 15.9979 16.0733 16.0018H20.4921C20.6216 16.0018 20.6957 16.0504 20.7145 16.1477L27 34.6906C27.0557 34.8851 27 34.9824 26.8333 34.9822H23.2204C23.1583 34.9895 23.0959 34.9728 23.0447 34.9352C22.9935 34.8976 22.9572 34.8418 22.9424 34.7781L21.5374 30.4674ZM16.129 26.8693H20.5199L20.4575 26.6523L20.3568 26.3089L20.2099 25.8169L19.9275 24.8882L19.1581 22.3328C19.0199 21.8738 18.8871 21.4129 18.76 20.9504L18.6179 20.4244L18.5014 19.9884L18.3582 19.4431L18.3244 19.3135H18.2967C18.1576 20.0137 17.9882 20.707 17.789 21.391L17.6013 22.0235L17.1498 23.5523L16.859 24.541L16.7355 24.9533L16.6129 25.3559L16.4908 25.7488C16.3735 26.1234 16.253 26.497 16.129 26.8693ZM28.9454 34.7047V23.9519C28.9454 23.8785 28.9454 23.8031 28.9447 23.7259L28.9428 23.4881L28.9394 23.2389L28.9316 22.8434L28.9224 22.4981C28.9174 22.3314 28.9114 22.1646 28.9046 21.998L28.89 21.6764L28.869 21.2776L28.8515 20.9854L28.8411 20.8362L28.8343 20.7499C28.8235 20.7208 28.8204 20.6892 28.8253 20.6585C28.8302 20.6277 28.8428 20.5988 28.862 20.575C28.8847 20.5541 28.9112 20.5382 28.9398 20.5282C28.9685 20.5181 28.9988 20.5142 29.0289 20.5167H31.8031C31.8988 20.5134 31.994 20.5333 32.0812 20.575C32.1561 20.6156 32.2077 20.6917 32.22 20.7791L32.3451 21.1731C32.3963 21.3661 32.4289 21.564 32.4424 21.7639C32.9797 21.2698 33.6024 20.8886 34.2766 20.6409C34.9469 20.3973 35.6516 20.274 36.3609 20.2761C36.9134 20.2788 37.462 20.3724 37.9869 20.5534C38.5927 20.7567 39.1453 21.105 39.6011 21.5708C40.0569 22.0365 40.4034 22.6071 40.6132 23.2374C40.8911 23.9862 41 24.9538 41 26.1398V34.7047C41 34.8796 40.9259 34.9671 40.7776 34.9671L37.5307 34.9974C37.4929 35.0031 37.4544 34.9995 37.4182 34.9868C37.382 34.9742 37.3491 34.9529 37.3221 34.9246C37.2951 34.8963 37.2748 34.8617 37.2627 34.8237C37.2507 34.7858 37.2472 34.7453 37.2526 34.7057V26.5796C37.2436 26.0354 37.1295 25.4988 36.9172 25.0022C36.7681 24.6358 36.5221 24.322 36.2083 24.0978C35.8538 23.87 35.4426 23.7583 35.0273 23.7769C34.5806 23.7701 34.1372 23.8545 33.7212 24.0249C33.3408 24.1843 32.9921 24.4168 32.6929 24.7104V34.7047C32.6929 34.8796 32.6188 34.9671 32.4705 34.9671H29.1959C29.1619 34.9722 29.1273 34.969 29.0947 34.9576C29.0621 34.9462 29.0325 34.927 29.0083 34.9016C28.984 34.8761 28.9657 34.845 28.9548 34.8109C28.944 34.7767 28.9408 34.7403 28.9457 34.7047" fill="white"/>
</g>
<defs>
<clipPath id="clip0_212_499">
<rect width="50" height="50" fill="white"/>
</clipPath>
</defs>
</svg>
