<svg width="50" height="50" viewBox="0 0 50 50" fill="none" xmlns="http://www.w3.org/2000/svg">
<g clip-path="url(#clip0_212_495)">
<path d="M21.6875 19.75C22.4167 22.125 23.1667 24.5 23.9167 26.9167H19.5C20.25 24.5 20.9583 22.125 21.6875 19.75Z" fill="black"/>
<path d="M35.4165 4.16675H14.5832C11.8205 4.16675 9.17098 5.26421 7.21747 7.21772C5.26397 9.17122 4.1665 11.8207 4.1665 14.5834V35.4167C4.1665 38.1794 5.26397 40.8289 7.21747 42.7824C9.17098 44.7359 11.8205 45.8334 14.5832 45.8334H35.4165C38.1792 45.8334 40.8287 44.7359 42.7822 42.7824C44.7357 40.8289 45.8332 38.1794 45.8332 35.4167V14.5834C45.8332 11.8207 44.7357 9.17122 42.7822 7.21772C40.8287 5.26421 38.1792 4.16675 35.4165 4.16675ZM30.1873 34.9584H26.9373C26.8077 34.9764 26.6762 34.9428 26.571 34.8649C26.4658 34.787 26.3954 34.671 26.3748 34.5417C25.979 33.3751 25.5623 32.2084 25.1665 31.0209C25.154 30.9465 25.1267 30.8753 25.0861 30.8116C25.0456 30.7479 24.9926 30.6931 24.9304 30.6503C24.8682 30.6075 24.798 30.5777 24.724 30.5627C24.6501 30.5476 24.5738 30.5476 24.4998 30.5626H18.9582C18.8812 30.5444 18.8013 30.5427 18.7236 30.5575C18.6459 30.5723 18.5722 30.6034 18.5074 30.6486C18.4425 30.6938 18.3879 30.7522 18.3471 30.8199C18.3063 30.8877 18.2803 30.9633 18.2707 31.0417C17.9165 32.2084 17.5207 33.3334 17.1665 34.5001C17.1566 34.5737 17.1317 34.6445 17.0932 34.708C17.0548 34.7716 17.0037 34.8266 16.9432 34.8696C16.8826 34.9125 16.8138 34.9426 16.7412 34.9579C16.6685 34.9732 16.5934 34.9734 16.5207 34.9584H13.6665C13.1665 34.9584 13.1248 34.9584 13.2915 34.4376L17.7915 21.4584C18.2082 20.2709 18.6248 19.0834 18.9998 17.8959C19.1059 17.5444 19.162 17.1797 19.1665 16.8126C19.1665 16.3751 19.3332 16.2709 19.729 16.2917H23.7082C23.9998 16.2917 24.1457 16.2917 24.2498 16.6876L29.3748 31.1251C29.7707 32.2501 30.1665 33.3542 30.5415 34.4584C30.7082 34.9167 30.6873 34.9584 30.1873 34.9584ZM36.5623 34.6042C36.5623 34.9584 36.4165 35.0626 36.0832 35.0626H33.0832C32.6665 35.0626 32.5623 34.8959 32.5623 34.5209V21.4376C32.5623 21.0209 32.6873 20.8542 33.1248 20.8751H36.0623C36.3957 20.8751 36.5623 20.8751 36.5623 21.3334C36.5478 25.7501 36.5478 30.173 36.5623 34.6042ZM34.479 19.3959C34.1805 19.4149 33.8814 19.3693 33.602 19.2624C33.3227 19.1554 33.0697 18.9896 32.8601 18.7761C32.6506 18.5626 32.4895 18.3065 32.3878 18.0252C32.2861 17.7439 32.2461 17.444 32.2707 17.1459C32.2736 16.8497 32.3355 16.557 32.4527 16.2849C32.57 16.0129 32.7402 15.7669 32.9536 15.5613C33.1669 15.3558 33.419 15.1947 33.6952 15.0877C33.9714 14.9806 34.2662 14.9295 34.5623 14.9376C34.8505 14.9367 35.1358 14.9955 35.4001 15.1105C35.6643 15.2255 35.9019 15.394 36.0977 15.6055C36.2935 15.8169 36.4433 16.0667 36.5376 16.3391C36.6319 16.6114 36.6687 16.9003 36.6457 17.1876C36.6627 17.4715 36.6215 17.7559 36.5245 18.0233C36.4274 18.2906 36.2767 18.5353 36.0815 18.7422C35.8863 18.9491 35.6508 19.1138 35.3896 19.2263C35.1283 19.3387 34.8468 19.3964 34.5623 19.3959H34.479Z" fill="#0D6786"/>
<path d="M23.9167 26.9167H19.5C20.25 24.5 20.9583 22.125 21.5833 19.75C22.4167 22.125 23.1667 24.5 23.9167 26.9167Z" fill="#0D6786"/>
</g>
<defs>
<clipPath id="clip0_212_495">
<rect width="50" height="50" fill="white"/>
</clipPath>
</defs>
</svg>
