<svg width="50" height="50" viewBox="0 0 50 50" fill="none" xmlns="http://www.w3.org/2000/svg">
<path d="M13 16.75H13.0278M13.0278 16.75H37.9722C38 17.1818 38 17.7125 38 18.3959V31.6041C38 33.1414 38 33.91 37.6972 34.4971C37.4308 35.0153 37.0053 35.4365 36.4819 35.7002C35.8889 36 35.1125 36 33.5597 36H17.4403C15.8875 36 15.1097 36 14.5167 35.7002C13.9931 35.4362 13.5694 35.0155 13.3028 34.4971C13 33.91 13 33.14 13 31.6V18.4C13 17.7152 13 17.1818 13.0278 16.75ZM13.0278 16.75C13.0597 16.211 13.1347 15.8288 13.3028 15.5015C13.5694 14.9831 13.9931 14.5637 14.5167 14.2997C15.1111 14 15.8889 14 17.4444 14H33.5556C35.1111 14 35.8889 14 36.4819 14.2997C37.0056 14.5637 37.4306 14.9831 37.6972 15.5015C37.8653 15.8274 37.9403 16.211 37.9736 16.75H38" stroke="white" stroke-width="5" stroke-linecap="round" stroke-linejoin="round"/>
</svg>
