<?xml version="1.0" encoding="utf-8"?>
<!-- Generator: Adobe Illustrator 26.0.0, SVG Export Plug-In . SVG Version: 6.00 Build 0)  -->
<svg version="1.1" xmlns="http://www.w3.org/2000/svg" xmlns:xlink="http://www.w3.org/1999/xlink" x="0px" y="0px"
	 viewBox="0 0 450 300" style="enable-background:new 0 0 450 300;" xml:space="preserve">
<style type="text/css">
	.st0{display:none;}
	.st1{display:inline;fill:#3FA335;}
	.st2{fill:#FFFFFF;stroke:#C6A2CC;stroke-width:20;stroke-miterlimit:10;}
	.st3{fill:#FFE5A6;stroke:#EFBC2F;stroke-width:13;stroke-miterlimit:10;}
</style>
<g id="Capa_2" class="st0">
	<rect x="-22.43" y="-20.98" class="st1" width="494.86" height="346.29"/>
</g>
<g id="Capa_1">
	<path class="st2" d="M348.26,275.14H70.21c-24.3,0-44-19.7-44-44V79.81c0-24.3,19.7-44,44-44h278.04c24.3,0,44,19.7,44,44v151.33
		C392.26,255.45,372.56,275.14,348.26,275.14z"/>
	<path class="st2" d="M209.24,35.81h143.65c12.18,0,39.37,15.29,39.37,48.2l-76.6,45.02l-99.71,58.47c-4.07,3.01-9.34,3.01-13.41,0
		l-100.96-58.94L26.21,84.01c-0.3-31.98,27.97-48.2,40.15-48.2H209.24z"/>
	<path class="st3" d="M400.62,30.41l6.42,13.01c1.45,2.94,4.26,4.98,7.5,5.45l14.35,2.09c8.17,1.19,11.43,11.23,5.52,16.99
		l-10.39,10.12c-2.35,2.29-3.42,5.59-2.86,8.82l2.45,14.29c1.4,8.14-7.14,14.34-14.45,10.5l-12.84-6.75c-2.9-1.53-6.37-1.53-9.27,0
		l-12.84,6.75c-7.31,3.84-15.85-2.36-14.45-10.5l2.45-14.29c0.55-3.23-0.52-6.53-2.86-8.82l-10.39-10.12
		c-5.91-5.76-2.65-15.8,5.52-16.99l14.35-2.09c3.24-0.47,6.05-2.51,7.5-5.45l6.42-13.01C386.41,23,396.97,23,400.62,30.41z"/>
</g>
</svg>
